<svg width="201" height="49" viewBox="0 0 201 49" fill="none" xmlns="http://www.w3.org/2000/svg">
<path d="M0 14C0 6.26801 6.26801 0 14 0H187C194.732 0 201 6.26801 201 14V35C201 42.732 194.732 49 187 49H14C6.26801 49 0 42.732 0 35V14Z" fill="url(#paint0_linear_2137_355)"/>
<path d="M67.5432 18.4H72.6732C74.0052 18.4 75.1812 18.67 76.2012 19.21C77.2212 19.738 78.0132 20.482 78.5772 21.442C79.1412 22.39 79.4232 23.476 79.4232 24.7C79.4232 25.924 79.1412 27.016 78.5772 27.976C78.0132 28.924 77.2212 29.668 76.2012 30.208C75.1812 30.736 74.0052 31 72.6732 31H67.5432V18.4ZM72.6012 29.848C73.7052 29.848 74.6712 29.632 75.4992 29.2C76.3272 28.756 76.9692 28.15 77.4252 27.382C77.8812 26.602 78.1092 25.708 78.1092 24.7C78.1092 23.692 77.8812 22.804 77.4252 22.036C76.9692 21.256 76.3272 20.65 75.4992 20.218C74.6712 19.774 73.7052 19.552 72.6012 19.552H68.8752V29.848H72.6012ZM87.9223 31.108C86.6743 31.108 85.5403 30.832 84.5203 30.28C83.5123 29.716 82.7203 28.948 82.1443 27.976C81.5803 27.004 81.2983 25.912 81.2983 24.7C81.2983 23.488 81.5803 22.396 82.1443 21.424C82.7203 20.452 83.5123 19.69 84.5203 19.138C85.5403 18.574 86.6743 18.292 87.9223 18.292C89.1703 18.292 90.2923 18.568 91.2883 19.12C92.2963 19.672 93.0883 20.44 93.6643 21.424C94.2403 22.396 94.5283 23.488 94.5283 24.7C94.5283 25.912 94.2403 27.01 93.6643 27.994C93.0883 28.966 92.2963 29.728 91.2883 30.28C90.2923 30.832 89.1703 31.108 87.9223 31.108ZM87.9223 29.92C88.9183 29.92 89.8183 29.698 90.6223 29.254C91.4263 28.798 92.0563 28.174 92.5123 27.382C92.9683 26.578 93.1963 25.684 93.1963 24.7C93.1963 23.716 92.9683 22.828 92.5123 22.036C92.0563 21.232 91.4263 20.608 90.6223 20.164C89.8183 19.708 88.9183 19.48 87.9223 19.48C86.9263 19.48 86.0203 19.708 85.2043 20.164C84.4003 20.608 83.7643 21.232 83.2963 22.036C82.8403 22.828 82.6123 23.716 82.6123 24.7C82.6123 25.684 82.8403 26.578 83.2963 27.382C83.7643 28.174 84.4003 28.798 85.2043 29.254C86.0203 29.698 86.9263 29.92 87.9223 29.92ZM114.425 18.4L110.177 31H108.773L105.083 20.254L101.375 31H99.9892L95.7412 18.4H97.1092L100.745 29.236L104.507 18.4H105.749L109.457 29.29L113.147 18.4H114.425ZM127.397 18.4V31H126.299L118.199 20.776V31H116.867V18.4H117.965L126.083 28.624V18.4H127.397ZM131.51 18.4H132.842V29.848H139.898V31H131.51V18.4ZM147.372 31.108C146.124 31.108 144.99 30.832 143.97 30.28C142.962 29.716 142.17 28.948 141.594 27.976C141.03 27.004 140.748 25.912 140.748 24.7C140.748 23.488 141.03 22.396 141.594 21.424C142.17 20.452 142.962 19.69 143.97 19.138C144.99 18.574 146.124 18.292 147.372 18.292C148.62 18.292 149.742 18.568 150.738 19.12C151.746 19.672 152.538 20.44 153.114 21.424C153.69 22.396 153.978 23.488 153.978 24.7C153.978 25.912 153.69 27.01 153.114 27.994C152.538 28.966 151.746 29.728 150.738 30.28C149.742 30.832 148.62 31.108 147.372 31.108ZM147.372 29.92C148.368 29.92 149.268 29.698 150.072 29.254C150.876 28.798 151.506 28.174 151.962 27.382C152.418 26.578 152.646 25.684 152.646 24.7C152.646 23.716 152.418 22.828 151.962 22.036C151.506 21.232 150.876 20.608 150.072 20.164C149.268 19.708 148.368 19.48 147.372 19.48C146.376 19.48 145.47 19.708 144.654 20.164C143.85 20.608 143.214 21.232 142.746 22.036C142.29 22.828 142.062 23.716 142.062 24.7C142.062 25.684 142.29 26.578 142.746 27.382C143.214 28.174 143.85 28.798 144.654 29.254C145.47 29.698 146.376 29.92 147.372 29.92ZM164.689 27.634H157.669L156.157 31H154.771L160.531 18.4H161.845L167.605 31H166.201L164.689 27.634ZM164.203 26.554L161.179 19.786L158.155 26.554H164.203ZM169.69 18.4H174.82C176.152 18.4 177.328 18.67 178.348 19.21C179.368 19.738 180.16 20.482 180.724 21.442C181.288 22.39 181.57 23.476 181.57 24.7C181.57 25.924 181.288 27.016 180.724 27.976C180.16 28.924 179.368 29.668 178.348 30.208C177.328 30.736 176.152 31 174.82 31H169.69V18.4ZM174.748 29.848C175.852 29.848 176.818 29.632 177.646 29.2C178.474 28.756 179.116 28.15 179.572 27.382C180.028 26.602 180.256 25.708 180.256 24.7C180.256 23.692 180.028 22.804 179.572 22.036C179.116 21.256 178.474 20.65 177.646 20.218C176.818 19.774 175.852 19.552 174.748 19.552H171.022V29.848H174.748Z" fill="white"/>
<path d="M44.75 14C44.75 13.5858 44.4142 13.25 44 13.25C43.5858 13.25 43.25 13.5858 43.25 14L44.75 14ZM43.4697 29.5303C43.7626 29.8232 44.2374 29.8232 44.5303 29.5303L49.3033 24.7574C49.5962 24.4645 49.5962 23.9896 49.3033 23.6967C49.0104 23.4038 48.5355 23.4038 48.2426 23.6967L44 27.9393L39.7574 23.6967C39.4645 23.4038 38.9896 23.4038 38.6967 23.6967C38.4038 23.9896 38.4038 24.4645 38.6967 24.7574L43.4697 29.5303ZM44 14L43.25 14L43.25 29L44 29L44.75 29L44.75 14L44 14Z" fill="white"/>
<path d="M33.5 31V33.5C33.5 34.6046 34.3954 35.5 35.5 35.5H52.5C53.6046 35.5 54.5 34.6046 54.5 33.5V31" stroke="white" stroke-width="1.5"/>
<defs>
<linearGradient id="paint0_linear_2137_355" x1="0" y1="49" x2="200.145" y2="0.939713" gradientUnits="userSpaceOnUse">
<stop stop-color="#E1E8FF"/>
<stop offset="0.365385" stop-color="#D1DEFE"/>
<stop offset="0.947115" stop-color="#7A62E2"/>
</linearGradient>
</defs>
</svg>
