<svg width="61" height="62" viewBox="0 0 61 62" fill="none" xmlns="http://www.w3.org/2000/svg">
<path d="M57.2719 37.3151C58.2364 36.5687 59.0171 35.6113 59.5542 34.5164C60.0914 33.4214 60.3706 32.218 60.3706 30.9985C60.3706 29.7789 60.0914 28.5755 59.5542 27.4806C59.0171 26.3856 58.2364 25.4282 57.2719 24.6818C44.781 15.02 30.8351 7.40292 15.9552 2.11512L13.2344 1.14845C8.03437 -0.69738 2.53854 2.81929 1.83437 8.19012C-0.132292 23.3321 -0.132292 38.6648 1.83437 53.8068C2.54271 59.1776 8.03437 62.6943 13.2344 60.8484L15.9552 59.8818C30.8351 54.594 44.781 46.9769 57.2719 37.3151Z" fill="white"/>
</svg>
