<svg width="81" height="81" viewBox="0 0 81 81" fill="none" xmlns="http://www.w3.org/2000/svg">
<path d="M60.75 40.5C60.75 45.8706 58.6165 51.0213 54.8189 54.8189C51.0213 58.6165 45.8706 60.75 40.5 60.75C35.1294 60.75 29.9787 58.6165 26.1811 54.8189C22.3835 51.0213 20.25 45.8706 20.25 40.5C20.25 35.1294 22.3835 29.9787 26.1811 26.1811C29.9787 22.3835 35.1294 20.25 40.5 20.25C45.8706 20.25 51.0213 22.3835 54.8189 26.1811C58.6165 29.9787 60.75 35.1294 60.75 40.5Z" fill="#FF6A00"/>
<path fill-rule="evenodd" clip-rule="evenodd" d="M40.5 4.21875C41.1713 4.21875 41.8152 4.48543 42.2899 4.96014C42.7646 5.43484 43.0312 6.07867 43.0312 6.75V10.125C43.0312 10.7963 42.7646 11.4402 42.2899 11.9149C41.8152 12.3896 41.1713 12.6562 40.5 12.6562C39.8287 12.6562 39.1848 12.3896 38.7101 11.9149C38.2354 11.4402 37.9688 10.7963 37.9688 10.125V6.75C37.9688 6.07867 38.2354 5.43484 38.7101 4.96014C39.1848 4.48543 39.8287 4.21875 40.5 4.21875ZM4.21875 40.5C4.21875 39.8287 4.48543 39.1848 4.96014 38.7101C5.43484 38.2354 6.07867 37.9688 6.75 37.9688H10.125C10.7963 37.9688 11.4402 38.2354 11.9149 38.7101C12.3896 39.1848 12.6562 39.8287 12.6562 40.5C12.6562 41.1713 12.3896 41.8152 11.9149 42.2899C11.4402 42.7646 10.7963 43.0312 10.125 43.0312H6.75C6.07867 43.0312 5.43484 42.7646 4.96014 42.2899C4.48543 41.8152 4.21875 41.1713 4.21875 40.5ZM68.3438 40.5C68.3438 39.8287 68.6104 39.1848 69.0851 38.7101C69.5598 38.2354 70.2037 37.9688 70.875 37.9688H74.25C74.9213 37.9688 75.5652 38.2354 76.0399 38.7101C76.5146 39.1848 76.7812 39.8287 76.7812 40.5C76.7812 41.1713 76.5146 41.8152 76.0399 42.2899C75.5652 42.7646 74.9213 43.0312 74.25 43.0312H70.875C70.2037 43.0312 69.5598 42.7646 69.0851 42.2899C68.6104 41.8152 68.3438 41.1713 68.3438 40.5ZM40.5 68.3438C41.1713 68.3438 41.8152 68.6104 42.2899 69.0851C42.7646 69.5598 43.0312 70.2037 43.0312 70.875V74.25C43.0312 74.9213 42.7646 75.5652 42.2899 76.0399C41.8152 76.5146 41.1713 76.7812 40.5 76.7812C39.8287 76.7812 39.1848 76.5146 38.7101 76.0399C38.2354 75.5652 37.9688 74.9213 37.9688 74.25V70.875C37.9688 70.2037 38.2354 69.5598 38.7101 69.0851C39.1848 68.6104 39.8287 68.3438 40.5 68.3438Z" fill="#FF6A00"/>
<path opacity="0.5" d="M14.8413 14.8435C15.0764 14.6083 15.3555 14.4217 15.6627 14.2944C15.9699 14.1671 16.2992 14.1016 16.6318 14.1016C16.9643 14.1016 17.2936 14.1671 17.6008 14.2944C17.908 14.4217 18.1871 14.6083 18.4222 14.8435L19.7486 16.1699C20.1957 16.6497 20.4391 17.2844 20.4275 17.9402C20.416 18.5959 20.1503 19.2216 19.6866 19.6854C19.2228 20.1491 18.5971 20.4148 17.9413 20.4264C17.2856 20.4379 16.6509 20.1945 16.1711 19.7474L14.8413 18.4244C14.3673 17.9498 14.1011 17.3064 14.1011 16.6356C14.1011 15.9649 14.3673 15.3215 14.8413 14.8469M66.1481 14.8469C66.6221 15.3215 66.8883 15.9649 66.8883 16.6356C66.8883 17.3064 66.6221 17.9498 66.1481 18.4244L64.8251 19.7508C64.3452 20.1979 63.7106 20.4413 63.0548 20.4297C62.399 20.4182 61.7734 20.1525 61.3096 19.6887C60.8458 19.225 60.5802 18.5993 60.5686 17.9435C60.557 17.2878 60.8005 16.6531 61.2476 16.1733L62.5706 14.8469C63.0452 14.3729 63.6885 14.1066 64.3593 14.1066C65.0301 14.1066 65.6735 14.3729 66.1481 14.8469ZM61.2442 61.2464C61.4793 61.0112 61.7584 60.8246 62.0656 60.6973C62.3728 60.57 62.7021 60.5044 63.0346 60.5044C63.3672 60.5044 63.6965 60.57 64.0037 60.6973C64.3109 60.8246 64.59 61.0112 64.8251 61.2464L66.1514 62.5728C66.5986 63.0526 66.842 63.6873 66.8304 64.343C66.8188 64.9988 66.5532 65.6245 66.0894 66.0882C65.6257 66.552 65 66.8177 64.3442 66.8292C63.6884 66.8408 63.0538 66.5974 62.574 66.1503L61.2442 64.8273C60.7702 64.3527 60.5039 63.7093 60.5039 63.0385C60.5039 62.3677 60.7702 61.7244 61.2442 61.2498M19.7486 61.2498C20.2226 61.7244 20.4889 62.3677 20.4889 63.0385C20.4889 63.7093 20.2226 64.3527 19.7486 64.8273L18.4222 66.1537C18.1905 66.4023 17.911 66.6018 17.6005 66.7402C17.29 66.8785 16.9548 66.9529 16.615 66.9589C16.2751 66.9649 15.9375 66.9024 15.6223 66.7751C15.3071 66.6478 15.0208 66.4583 14.7804 66.2179C14.5401 65.9775 14.3506 65.6912 14.2233 65.376C14.096 65.0609 14.0335 64.7233 14.0395 64.3834C14.0455 64.0435 14.1198 63.7083 14.2582 63.3978C14.3965 63.0873 14.596 62.8079 14.8447 62.5762L16.1677 61.2498C16.6423 60.7758 17.2857 60.5095 17.9565 60.5095C18.6272 60.5095 19.2706 60.7758 19.7452 61.2498" fill="#F4DD4B"/>
</svg>
